# xmcd CD database file
#
# Track frame offsets:
#	150
#	15690
#	29652
#	52811
#	75524
#	86660
#	102254
#	124904
#	137631
#	153006
#	170339
#	197061
#	216538
#
# Disc length: 3108 seconds
#
# Revision: 0
# Processed by: cddbd v1.5.2PL0 Copyright (c) Steve Scherf et al.
# Submitted via: CDex 1.70beta2
#
DISCID=a80c220d
DTITLE=Fritz Köster's Bluestime - Can't Stop This Feelin'
DYEAR=2009
DGENRE=Blues
TTITLE0=Blow Wind blow
TTITLE1=Messing with the Kid
TTITLE2=Wang Dang Doodle
TTITLE3=Nine below Zero
TTITLE4=Bright Lights big City
TTITLE5=Can't be satisfied
TTITLE6=Love in Vain
TTITLE7=Built for Comfort
TTITLE8=Kingbee
TTITLE9=Talk to me Baby
TTITLE10=Cleanhead Blues
TTITLE11=The Thrill is gone
TTITLE12=Look over Yonderswall
EXTD=YEAR: 2009
EXTT0=
EXTT1=
EXTT2=
EXTT3=
EXTT4=
EXTT5=
EXTT6=
EXTT7=
EXTT8=
EXTT9=
EXTT10=
EXTT11=
EXTT12=
PLAYORDER=
